<?xml version="1.0" encoding="utf-8" standalone="no"?>
<!DOCTYPE svg PUBLIC "-//W3C//DTD SVG 1.1//EN"
  "http://www.w3.org/Graphics/SVG/1.1/DTD/svg11.dtd">
<!-- Created with matplotlib (http://matplotlib.org/) -->
<svg height="432pt" version="1.1" viewBox="0 0 576 432" width="576pt" xmlns="http://www.w3.org/2000/svg" xmlns:xlink="http://www.w3.org/1999/xlink">
 <defs>
  <style type="text/css">
*{stroke-linecap:butt;stroke-linejoin:round;stroke-miterlimit:100000;}
  </style>
 </defs>
 <g id="figure_1">
  <g id="patch_1">
   <path d="M 0 432 
L 576 432 
L 576 0 
L 0 0 
z
" style="fill:#ffffff;"/>
  </g>
  <g id="axes_1">
   <g id="patch_2">
    <path d="M 72 195.381818 
L 518.4 195.381818 
L 518.4 43.2 
L 72 43.2 
z
" style="fill:#eaeaf2;"/>
   </g>
   <g id="matplotlib.axis_1">
    <g id="xtick_1">
     <g id="line2d_1">
      <path clip-path="url(#p4eee9281a2)" d="M 81.576238 195.381818 
L 81.576238 43.2 
" style="fill:none;stroke:#ffffff;stroke-linecap:round;"/>
     </g>
     <g id="line2d_2"/>
     <g id="line2d_3"/>
    </g>
    <g id="xtick_2">
     <g id="line2d_4">
      <path clip-path="url(#p4eee9281a2)" d="M 133.140594 195.381818 
L 133.140594 43.2 
" style="fill:none;stroke:#ffffff;stroke-linecap:round;"/>
     </g>
     <g id="line2d_5"/>
     <g id="line2d_6"/>
    </g>
    <g id="xtick_3">
     <g id="line2d_7">
      <path clip-path="url(#p4eee9281a2)" d="M 184.70495 195.381818 
L 184.70495 43.2 
" style="fill:none;stroke:#ffffff;stroke-linecap:round;"/>
     </g>
     <g id="line2d_8"/>
     <g id="line2d_9"/>
    </g>
    <g id="xtick_4">
     <g id="line2d_10">
      <path clip-path="url(#p4eee9281a2)" d="M 236.269307 195.381818 
L 236.269307 43.2 
" style="fill:none;stroke:#ffffff;stroke-linecap:round;"/>
     </g>
     <g id="line2d_11"/>
     <g id="line2d_12"/>
    </g>
    <g id="xtick_5">
     <g id="line2d_13">
      <path clip-path="url(#p4eee9281a2)" d="M 287.833663 195.381818 
L 287.833663 43.2 
" style="fill:none;stroke:#ffffff;stroke-linecap:round;"/>
     </g>
     <g id="line2d_14"/>
     <g id="line2d_15"/>
    </g>
    <g id="xtick_6">
     <g id="line2d_16">
      <path clip-path="url(#p4eee9281a2)" d="M 339.39802 195.381818 
L 339.39802 43.2 
" style="fill:none;stroke:#ffffff;stroke-linecap:round;"/>
     </g>
     <g id="line2d_17"/>
     <g id="line2d_18"/>
    </g>
    <g id="xtick_7">
     <g id="line2d_19">
      <path clip-path="url(#p4eee9281a2)" d="M 390.962376 195.381818 
L 390.962376 43.2 
" style="fill:none;stroke:#ffffff;stroke-linecap:round;"/>
     </g>
     <g id="line2d_20"/>
     <g id="line2d_21"/>
    </g>
    <g id="xtick_8">
     <g id="line2d_22">
      <path clip-path="url(#p4eee9281a2)" d="M 442.526733 195.381818 
L 442.526733 43.2 
" style="fill:none;stroke:#ffffff;stroke-linecap:round;"/>
     </g>
     <g id="line2d_23"/>
     <g id="line2d_24"/>
    </g>
    <g id="xtick_9">
     <g id="line2d_25">
      <path clip-path="url(#p4eee9281a2)" d="M 494.091089 195.381818 
L 494.091089 43.2 
" style="fill:none;stroke:#ffffff;stroke-linecap:round;"/>
     </g>
     <g id="line2d_26"/>
     <g id="line2d_27"/>
    </g>
   </g>
   <g id="matplotlib.axis_2">
    <g id="ytick_1">
     <g id="line2d_28">
      <path clip-path="url(#p4eee9281a2)" d="M 72 195.381818 
L 518.4 195.381818 
" style="fill:none;stroke:#ffffff;stroke-linecap:round;"/>
     </g>
     <g id="line2d_29"/>
     <g id="line2d_30"/>
     <g id="text_1">
      <!-- 33.0 -->
      <defs>
       <path d="M 4.15625 35.296875 
Q 4.15625 48 6.765625 55.734375 
Q 9.375 63.484375 14.515625 67.671875 
Q 19.671875 71.875 27.484375 71.875 
Q 33.25 71.875 37.59375 69.546875 
Q 41.9375 67.234375 44.765625 62.859375 
Q 47.609375 58.5 49.21875 52.21875 
Q 50.828125 45.953125 50.828125 35.296875 
Q 50.828125 22.703125 48.234375 14.96875 
Q 45.65625 7.234375 40.5 3 
Q 35.359375 -1.21875 27.484375 -1.21875 
Q 17.140625 -1.21875 11.234375 6.203125 
Q 4.15625 15.140625 4.15625 35.296875 
M 13.1875 35.296875 
Q 13.1875 17.671875 17.3125 11.828125 
Q 21.4375 6 27.484375 6 
Q 33.546875 6 37.671875 11.859375 
Q 41.796875 17.71875 41.796875 35.296875 
Q 41.796875 52.984375 37.671875 58.78125 
Q 33.546875 64.59375 27.390625 64.59375 
Q 21.34375 64.59375 17.71875 59.46875 
Q 13.1875 52.9375 13.1875 35.296875 
" id="ArialMT-30"/>
       <path d="M 9.078125 0 
L 9.078125 10.015625 
L 19.09375 10.015625 
L 19.09375 0 
z
" id="ArialMT-2e"/>
       <path d="M 4.203125 18.890625 
L 12.984375 20.0625 
Q 14.5 12.59375 18.140625 9.296875 
Q 21.78125 6 27 6 
Q 33.203125 6 37.46875 10.296875 
Q 41.75 14.59375 41.75 20.953125 
Q 41.75 27 37.796875 30.921875 
Q 33.84375 34.859375 27.734375 34.859375 
Q 25.25 34.859375 21.53125 33.890625 
L 22.515625 41.609375 
Q 23.390625 41.5 23.921875 41.5 
Q 29.546875 41.5 34.03125 44.421875 
Q 38.53125 47.359375 38.53125 53.46875 
Q 38.53125 58.296875 35.25 61.46875 
Q 31.984375 64.65625 26.8125 64.65625 
Q 21.6875 64.65625 18.265625 61.421875 
Q 14.84375 58.203125 13.875 51.765625 
L 5.078125 53.328125 
Q 6.6875 62.15625 12.390625 67.015625 
Q 18.109375 71.875 26.609375 71.875 
Q 32.46875 71.875 37.390625 69.359375 
Q 42.328125 66.84375 44.9375 62.5 
Q 47.5625 58.15625 47.5625 53.265625 
Q 47.5625 48.640625 45.0625 44.828125 
Q 42.578125 41.015625 37.703125 38.765625 
Q 44.046875 37.3125 47.5625 32.6875 
Q 51.078125 28.078125 51.078125 21.140625 
Q 51.078125 11.765625 44.234375 5.25 
Q 37.40625 -1.265625 26.953125 -1.265625 
Q 17.53125 -1.265625 11.296875 4.34375 
Q 5.078125 9.96875 4.203125 18.890625 
" id="ArialMT-33"/>
      </defs>
      <g style="fill:#262626;" transform="translate(45.5390625 197.966974432)scale(0.1 -0.1)">
       <use xlink:href="#ArialMT-33"/>
       <use x="55.615234375" xlink:href="#ArialMT-33"/>
       <use x="111.23046875" xlink:href="#ArialMT-2e"/>
       <use x="139.013671875" xlink:href="#ArialMT-30"/>
      </g>
     </g>
    </g>
    <g id="ytick_2">
     <g id="line2d_31">
      <path clip-path="url(#p4eee9281a2)" d="M 72 178.472727 
L 518.4 178.472727 
" style="fill:none;stroke:#ffffff;stroke-linecap:round;"/>
     </g>
     <g id="line2d_32"/>
     <g id="line2d_33"/>
     <g id="text_2">
      <!-- 33.5 -->
      <defs>
       <path d="M 4.15625 18.75 
L 13.375 19.53125 
Q 14.40625 12.796875 18.140625 9.390625 
Q 21.875 6 27.15625 6 
Q 33.5 6 37.890625 10.78125 
Q 42.28125 15.578125 42.28125 23.484375 
Q 42.28125 31 38.0625 35.34375 
Q 33.84375 39.703125 27 39.703125 
Q 22.75 39.703125 19.328125 37.765625 
Q 15.921875 35.84375 13.96875 32.765625 
L 5.71875 33.84375 
L 12.640625 70.609375 
L 48.25 70.609375 
L 48.25 62.203125 
L 19.671875 62.203125 
L 15.828125 42.96875 
Q 22.265625 47.46875 29.34375 47.46875 
Q 38.71875 47.46875 45.15625 40.96875 
Q 51.609375 34.46875 51.609375 24.265625 
Q 51.609375 14.546875 45.953125 7.46875 
Q 39.0625 -1.21875 27.15625 -1.21875 
Q 17.390625 -1.21875 11.203125 4.25 
Q 5.03125 9.71875 4.15625 18.75 
" id="ArialMT-35"/>
      </defs>
      <g style="fill:#262626;" transform="translate(45.5390625 181.057883523)scale(0.1 -0.1)">
       <use xlink:href="#ArialMT-33"/>
       <use x="55.615234375" xlink:href="#ArialMT-33"/>
       <use x="111.23046875" xlink:href="#ArialMT-2e"/>
       <use x="139.013671875" xlink:href="#ArialMT-35"/>
      </g>
     </g>
    </g>
    <g id="ytick_3">
     <g id="line2d_34">
      <path clip-path="url(#p4eee9281a2)" d="M 72 161.563636 
L 518.4 161.563636 
" style="fill:none;stroke:#ffffff;stroke-linecap:round;"/>
     </g>
     <g id="line2d_35"/>
     <g id="line2d_36"/>
     <g id="text_3">
      <!-- 34.0 -->
      <defs>
       <path d="M 32.328125 0 
L 32.328125 17.140625 
L 1.265625 17.140625 
L 1.265625 25.203125 
L 33.9375 71.578125 
L 41.109375 71.578125 
L 41.109375 25.203125 
L 50.78125 25.203125 
L 50.78125 17.140625 
L 41.109375 17.140625 
L 41.109375 0 
z
M 32.328125 25.203125 
L 32.328125 57.46875 
L 9.90625 25.203125 
z
" id="ArialMT-34"/>
      </defs>
      <g style="fill:#262626;" transform="translate(45.5390625 164.148792614)scale(0.1 -0.1)">
       <use xlink:href="#ArialMT-33"/>
       <use x="55.615234375" xlink:href="#ArialMT-34"/>
       <use x="111.23046875" xlink:href="#ArialMT-2e"/>
       <use x="139.013671875" xlink:href="#ArialMT-30"/>
      </g>
     </g>
    </g>
    <g id="ytick_4">
     <g id="line2d_37">
      <path clip-path="url(#p4eee9281a2)" d="M 72 144.654545 
L 518.4 144.654545 
" style="fill:none;stroke:#ffffff;stroke-linecap:round;"/>
     </g>
     <g id="line2d_38"/>
     <g id="line2d_39"/>
     <g id="text_4">
      <!-- 34.5 -->
      <g style="fill:#262626;" transform="translate(45.5390625 147.239701705)scale(0.1 -0.1)">
       <use xlink:href="#ArialMT-33"/>
       <use x="55.615234375" xlink:href="#ArialMT-34"/>
       <use x="111.23046875" xlink:href="#ArialMT-2e"/>
       <use x="139.013671875" xlink:href="#ArialMT-35"/>
      </g>
     </g>
    </g>
    <g id="ytick_5">
     <g id="line2d_40">
      <path clip-path="url(#p4eee9281a2)" d="M 72 127.745455 
L 518.4 127.745455 
" style="fill:none;stroke:#ffffff;stroke-linecap:round;"/>
     </g>
     <g id="line2d_41"/>
     <g id="line2d_42"/>
     <g id="text_5">
      <!-- 35.0 -->
      <g style="fill:#262626;" transform="translate(45.5390625 130.330610795)scale(0.1 -0.1)">
       <use xlink:href="#ArialMT-33"/>
       <use x="55.615234375" xlink:href="#ArialMT-35"/>
       <use x="111.23046875" xlink:href="#ArialMT-2e"/>
       <use x="139.013671875" xlink:href="#ArialMT-30"/>
      </g>
     </g>
    </g>
    <g id="ytick_6">
     <g id="line2d_43">
      <path clip-path="url(#p4eee9281a2)" d="M 72 110.836364 
L 518.4 110.836364 
" style="fill:none;stroke:#ffffff;stroke-linecap:round;"/>
     </g>
     <g id="line2d_44"/>
     <g id="line2d_45"/>
     <g id="text_6">
      <!-- 35.5 -->
      <g style="fill:#262626;" transform="translate(45.5390625 113.421519886)scale(0.1 -0.1)">
       <use xlink:href="#ArialMT-33"/>
       <use x="55.615234375" xlink:href="#ArialMT-35"/>
       <use x="111.23046875" xlink:href="#ArialMT-2e"/>
       <use x="139.013671875" xlink:href="#ArialMT-35"/>
      </g>
     </g>
    </g>
    <g id="ytick_7">
     <g id="line2d_46">
      <path clip-path="url(#p4eee9281a2)" d="M 72 93.927273 
L 518.4 93.927273 
" style="fill:none;stroke:#ffffff;stroke-linecap:round;"/>
     </g>
     <g id="line2d_47"/>
     <g id="line2d_48"/>
     <g id="text_7">
      <!-- 36.0 -->
      <defs>
       <path d="M 49.75 54.046875 
L 41.015625 53.375 
Q 39.84375 58.546875 37.703125 60.890625 
Q 34.125 64.65625 28.90625 64.65625 
Q 24.703125 64.65625 21.53125 62.3125 
Q 17.390625 59.28125 14.984375 53.46875 
Q 12.59375 47.65625 12.5 36.921875 
Q 15.671875 41.75 20.265625 44.09375 
Q 24.859375 46.4375 29.890625 46.4375 
Q 38.671875 46.4375 44.84375 39.96875 
Q 51.03125 33.5 51.03125 23.25 
Q 51.03125 16.5 48.125 10.71875 
Q 45.21875 4.9375 40.140625 1.859375 
Q 35.0625 -1.21875 28.609375 -1.21875 
Q 17.625 -1.21875 10.6875 6.859375 
Q 3.765625 14.9375 3.765625 33.5 
Q 3.765625 54.25 11.421875 63.671875 
Q 18.109375 71.875 29.4375 71.875 
Q 37.890625 71.875 43.28125 67.140625 
Q 48.6875 62.40625 49.75 54.046875 
M 13.875 23.1875 
Q 13.875 18.65625 15.796875 14.5 
Q 17.71875 10.359375 21.1875 8.171875 
Q 24.65625 6 28.46875 6 
Q 34.03125 6 38.03125 10.484375 
Q 42.046875 14.984375 42.046875 22.703125 
Q 42.046875 30.125 38.078125 34.390625 
Q 34.125 38.671875 28.125 38.671875 
Q 22.171875 38.671875 18.015625 34.390625 
Q 13.875 30.125 13.875 23.1875 
" id="ArialMT-36"/>
      </defs>
      <g style="fill:#262626;" transform="translate(45.5390625 96.5124289773)scale(0.1 -0.1)">
       <use xlink:href="#ArialMT-33"/>
       <use x="55.615234375" xlink:href="#ArialMT-36"/>
       <use x="111.23046875" xlink:href="#ArialMT-2e"/>
       <use x="139.013671875" xlink:href="#ArialMT-30"/>
      </g>
     </g>
    </g>
    <g id="ytick_8">
     <g id="line2d_49">
      <path clip-path="url(#p4eee9281a2)" d="M 72 77.018182 
L 518.4 77.018182 
" style="fill:none;stroke:#ffffff;stroke-linecap:round;"/>
     </g>
     <g id="line2d_50"/>
     <g id="line2d_51"/>
     <g id="text_8">
      <!-- 36.5 -->
      <g style="fill:#262626;" transform="translate(45.5390625 79.6033380682)scale(0.1 -0.1)">
       <use xlink:href="#ArialMT-33"/>
       <use x="55.615234375" xlink:href="#ArialMT-36"/>
       <use x="111.23046875" xlink:href="#ArialMT-2e"/>
       <use x="139.013671875" xlink:href="#ArialMT-35"/>
      </g>
     </g>
    </g>
    <g id="ytick_9">
     <g id="line2d_52">
      <path clip-path="url(#p4eee9281a2)" d="M 72 60.109091 
L 518.4 60.109091 
" style="fill:none;stroke:#ffffff;stroke-linecap:round;"/>
     </g>
     <g id="line2d_53"/>
     <g id="line2d_54"/>
     <g id="text_9">
      <!-- 37.0 -->
      <defs>
       <path d="M 4.734375 62.203125 
L 4.734375 70.65625 
L 51.078125 70.65625 
L 51.078125 63.8125 
Q 44.234375 56.546875 37.515625 44.484375 
Q 30.8125 32.421875 27.15625 19.671875 
Q 24.515625 10.6875 23.78125 0 
L 14.75 0 
Q 14.890625 8.453125 18.0625 20.40625 
Q 21.234375 32.375 27.171875 43.484375 
Q 33.109375 54.59375 39.796875 62.203125 
z
" id="ArialMT-37"/>
      </defs>
      <g style="fill:#262626;" transform="translate(45.5390625 62.6942471591)scale(0.1 -0.1)">
       <use xlink:href="#ArialMT-33"/>
       <use x="55.615234375" xlink:href="#ArialMT-37"/>
       <use x="111.23046875" xlink:href="#ArialMT-2e"/>
       <use x="139.013671875" xlink:href="#ArialMT-30"/>
      </g>
     </g>
    </g>
    <g id="ytick_10">
     <g id="line2d_55">
      <path clip-path="url(#p4eee9281a2)" d="M 72 43.2 
L 518.4 43.2 
" style="fill:none;stroke:#ffffff;stroke-linecap:round;"/>
     </g>
     <g id="line2d_56"/>
     <g id="line2d_57"/>
     <g id="text_10">
      <!-- 37.5 -->
      <g style="fill:#262626;" transform="translate(45.5390625 45.78515625)scale(0.1 -0.1)">
       <use xlink:href="#ArialMT-33"/>
       <use x="55.615234375" xlink:href="#ArialMT-37"/>
       <use x="111.23046875" xlink:href="#ArialMT-2e"/>
       <use x="139.013671875" xlink:href="#ArialMT-35"/>
      </g>
     </g>
    </g>
    <g id="text_11">
     <!-- index level -->
     <defs>
      <path d="M 0.734375 0 
L 19.671875 26.953125 
L 2.15625 51.859375 
L 13.140625 51.859375 
L 21.09375 39.703125 
Q 23.34375 36.234375 24.703125 33.890625 
Q 26.859375 37.109375 28.65625 39.59375 
L 37.40625 51.859375 
L 47.90625 51.859375 
L 29.984375 27.4375 
L 49.265625 0 
L 38.484375 0 
L 27.828125 16.109375 
L 25 20.453125 
L 11.375 0 
z
" id="ArialMT-78"/>
      <path d="M 42.09375 16.703125 
L 51.171875 15.578125 
Q 49.03125 7.625 43.21875 3.21875 
Q 37.40625 -1.171875 28.375 -1.171875 
Q 17 -1.171875 10.328125 5.828125 
Q 3.65625 12.84375 3.65625 25.484375 
Q 3.65625 38.578125 10.390625 45.796875 
Q 17.140625 53.03125 27.875 53.03125 
Q 38.28125 53.03125 44.875 45.953125 
Q 51.46875 38.875 51.46875 26.03125 
Q 51.46875 25.25 51.421875 23.6875 
L 12.75 23.6875 
Q 13.234375 15.140625 17.578125 10.59375 
Q 21.921875 6.0625 28.421875 6.0625 
Q 33.25 6.0625 36.671875 8.59375 
Q 40.09375 11.140625 42.09375 16.703125 
M 13.234375 30.90625 
L 42.1875 30.90625 
Q 41.609375 37.453125 38.875 40.71875 
Q 34.671875 45.796875 27.984375 45.796875 
Q 21.921875 45.796875 17.796875 41.75 
Q 13.671875 37.703125 13.234375 30.90625 
" id="ArialMT-65"/>
      <path d="M 40.234375 0 
L 40.234375 6.546875 
Q 35.296875 -1.171875 25.734375 -1.171875 
Q 19.53125 -1.171875 14.328125 2.25 
Q 9.125 5.671875 6.265625 11.796875 
Q 3.421875 17.921875 3.421875 25.875 
Q 3.421875 33.640625 6 39.96875 
Q 8.59375 46.296875 13.765625 49.65625 
Q 18.953125 53.03125 25.34375 53.03125 
Q 30.03125 53.03125 33.6875 51.046875 
Q 37.359375 49.078125 39.65625 45.90625 
L 39.65625 71.578125 
L 48.390625 71.578125 
L 48.390625 0 
z
M 12.453125 25.875 
Q 12.453125 15.921875 16.640625 10.984375 
Q 20.84375 6.0625 26.5625 6.0625 
Q 32.328125 6.0625 36.34375 10.765625 
Q 40.375 15.484375 40.375 25.140625 
Q 40.375 35.796875 36.265625 40.765625 
Q 32.171875 45.75 26.171875 45.75 
Q 20.3125 45.75 16.375 40.96875 
Q 12.453125 36.1875 12.453125 25.875 
" id="ArialMT-64"/>
      <path d="M 6.640625 61.46875 
L 6.640625 71.578125 
L 15.4375 71.578125 
L 15.4375 61.46875 
z
M 6.640625 0 
L 6.640625 51.859375 
L 15.4375 51.859375 
L 15.4375 0 
z
" id="ArialMT-69"/>
      <path d="M 6.390625 0 
L 6.390625 71.578125 
L 15.1875 71.578125 
L 15.1875 0 
z
" id="ArialMT-6c"/>
      <path d="M 6.59375 0 
L 6.59375 51.859375 
L 14.5 51.859375 
L 14.5 44.484375 
Q 20.21875 53.03125 31 53.03125 
Q 35.6875 53.03125 39.625 51.34375 
Q 43.5625 49.65625 45.515625 46.921875 
Q 47.46875 44.1875 48.25 40.4375 
Q 48.734375 37.984375 48.734375 31.890625 
L 48.734375 0 
L 39.9375 0 
L 39.9375 31.546875 
Q 39.9375 36.921875 38.90625 39.578125 
Q 37.890625 42.234375 35.28125 43.8125 
Q 32.671875 45.40625 29.15625 45.40625 
Q 23.53125 45.40625 19.453125 41.84375 
Q 15.375 38.28125 15.375 28.328125 
L 15.375 0 
z
" id="ArialMT-6e"/>
      <path d="M 21 0 
L 1.265625 51.859375 
L 10.546875 51.859375 
L 21.6875 20.796875 
Q 23.484375 15.765625 25 10.359375 
Q 26.171875 14.453125 28.265625 20.21875 
L 39.796875 51.859375 
L 48.828125 51.859375 
L 29.203125 0 
z
" id="ArialMT-76"/>
      <path id="ArialMT-20"/>
     </defs>
     <g style="fill:#262626;" transform="translate(38.3528125 145.277549716)rotate(-90.0)scale(0.11 -0.11)">
      <use xlink:href="#ArialMT-69"/>
      <use x="22.216796875" xlink:href="#ArialMT-6e"/>
      <use x="77.83203125" xlink:href="#ArialMT-64"/>
      <use x="133.447265625" xlink:href="#ArialMT-65"/>
      <use x="189.0625" xlink:href="#ArialMT-78"/>
      <use x="239.0625" xlink:href="#ArialMT-20"/>
      <use x="266.845703125" xlink:href="#ArialMT-6c"/>
      <use x="289.0625" xlink:href="#ArialMT-65"/>
      <use x="344.677734375" xlink:href="#ArialMT-76"/>
      <use x="394.677734375" xlink:href="#ArialMT-65"/>
      <use x="450.29296875" xlink:href="#ArialMT-6c"/>
     </g>
    </g>
   </g>
   <g id="patch_3">
    <path clip-path="url(#p4eee9281a2)" d="M 72 93.927273 
L 76.419802 93.927273 
L 76.419802 85.134613 
L 72 85.134613 
z
" style="fill:#ff0000;stroke:#ff0000;stroke-linejoin:miter;stroke-width:0.3;"/>
   </g>
   <g id="patch_4">
    <path clip-path="url(#p4eee9281a2)" d="M 79.366337 86.825488 
L 83.786139 86.825488 
L 83.786139 73.974545 
L 79.366337 73.974545 
z
" style="fill:#ff0000;stroke:#ff0000;stroke-linejoin:miter;stroke-width:0.3;"/>
   </g>
   <g id="patch_5">
    <path clip-path="url(#p4eee9281a2)" d="M 101.465347 83.781852 
L 105.885149 83.781852 
L 105.885149 70.930909 
L 101.465347 70.930909 
z
" style="fill:#ff0000;stroke:#ff0000;stroke-linejoin:miter;stroke-width:0.3;"/>
   </g>
   <g id="patch_6">
    <path clip-path="url(#p4eee9281a2)" d="M 108.831683 77.694545 
L 113.251485 77.694545 
L 113.251485 62.138216 
L 108.831683 62.138216 
z
" style="fill:#ff0000;stroke:#ff0000;stroke-linejoin:miter;stroke-width:0.3;"/>
   </g>
   <g id="patch_7">
    <path clip-path="url(#p4eee9281a2)" d="M 116.19802 172.723704 
L 120.617822 172.723704 
L 120.617822 94.265387 
L 116.19802 94.265387 
z
" style="fill:#ff0000;stroke:#ff0000;stroke-linejoin:miter;stroke-width:0.3;"/>
   </g>
   <g id="patch_8">
    <path clip-path="url(#p4eee9281a2)" d="M 123.564356 174.752693 
L 127.984158 174.752693 
L 127.984158 165.621784 
L 123.564356 165.621784 
z
" style="fill:#ff0000;stroke:#ff0000;stroke-linejoin:miter;stroke-width:0.3;"/>
   </g>
   <g id="patch_9">
    <path clip-path="url(#p4eee9281a2)" d="M 130.930693 181.516364 
L 135.350495 181.516364 
L 135.350495 161.225522 
L 130.930693 161.225522 
z
" style="fill:#ff0000;stroke:#ff0000;stroke-linejoin:miter;stroke-width:0.3;"/>
   </g>
   <g id="patch_10">
    <path clip-path="url(#p4eee9281a2)" d="M 153.029703 165.960034 
L 157.449505 165.960034 
L 157.449505 161.901751 
L 153.029703 161.901751 
z
" style="fill:#ff0000;stroke:#ff0000;stroke-linejoin:miter;stroke-width:0.3;"/>
   </g>
   <g id="patch_11">
    <path clip-path="url(#p4eee9281a2)" d="M 160.39604 155.814613 
L 164.815842 155.814613 
L 164.815842 147.021818 
L 160.39604 147.021818 
z
" style="fill:#ff0000;stroke:#ff0000;stroke-linejoin:miter;stroke-width:0.3;"/>
   </g>
   <g id="patch_12">
    <path clip-path="url(#p4eee9281a2)" d="M 167.762376 162.24 
L 172.182178 162.24 
L 172.182178 145.330909 
L 167.762376 145.330909 
z
" style="fill:#ff0000;stroke:#ff0000;stroke-linejoin:miter;stroke-width:0.3;"/>
   </g>
   <g id="patch_13">
    <path clip-path="url(#p4eee9281a2)" d="M 175.128713 181.854478 
L 179.548515 181.854478 
L 179.548515 155.476364 
L 175.128713 155.476364 
z
" style="fill:#ff0000;stroke:#ff0000;stroke-linejoin:miter;stroke-width:0.3;"/>
   </g>
   <g id="patch_14">
    <path clip-path="url(#p4eee9281a2)" d="M 182.49505 192.000068 
L 186.914851 192.000068 
L 186.914851 173.061818 
L 182.49505 173.061818 
z
" style="fill:#ff0000;stroke:#ff0000;stroke-linejoin:miter;stroke-width:0.3;"/>
   </g>
   <g id="patch_15">
    <path clip-path="url(#p4eee9281a2)" d="M 204.594059 185.912761 
L 209.013861 185.912761 
L 209.013861 181.516364 
L 204.594059 181.516364 
z
" style="fill:#ff0000;stroke:#ff0000;stroke-linejoin:miter;stroke-width:0.3;"/>
   </g>
   <g id="patch_16">
    <path clip-path="url(#p4eee9281a2)" d="M 211.960396 172.723704 
L 216.380198 172.723704 
L 216.380198 161.901751 
L 211.960396 161.901751 
z
" style="fill:#ff0000;stroke:#ff0000;stroke-linejoin:miter;stroke-width:0.3;"/>
   </g>
   <g id="patch_17">
    <path clip-path="url(#p4eee9281a2)" d="M 219.326733 165.28367 
L 223.746535 165.28367 
L 223.746535 161.563636 
L 219.326733 161.563636 
z
" style="fill:#ff0000;stroke:#ff0000;stroke-linejoin:miter;stroke-width:0.3;"/>
   </g>
   <g id="patch_18">
    <path clip-path="url(#p4eee9281a2)" d="M 226.693069 152.770977 
L 231.112871 152.770977 
L 231.112871 141.272795 
L 226.693069 141.272795 
z
" style="fill:#ff0000;stroke:#ff0000;stroke-linejoin:miter;stroke-width:0.3;"/>
   </g>
   <g id="patch_19">
    <path clip-path="url(#p4eee9281a2)" d="M 234.059406 144.316431 
L 238.479208 144.316431 
L 238.479208 132.818249 
L 234.059406 132.818249 
z
" style="fill:#ff0000;stroke:#ff0000;stroke-linejoin:miter;stroke-width:0.3;"/>
   </g>
   <g id="patch_20">
    <path clip-path="url(#p4eee9281a2)" d="M 263.524752 136.876364 
L 267.944554 136.876364 
L 267.944554 127.745455 
L 263.524752 127.745455 
z
" style="fill:#ff0000;stroke:#ff0000;stroke-linejoin:miter;stroke-width:0.3;"/>
   </g>
   <g id="patch_21">
    <path clip-path="url(#p4eee9281a2)" d="M 270.891089 147.360068 
L 275.310891 147.360068 
L 275.310891 122.67266 
L 270.891089 122.67266 
z
" style="fill:#ff0000;stroke:#ff0000;stroke-linejoin:miter;stroke-width:0.3;"/>
   </g>
   <g id="patch_22">
    <path clip-path="url(#p4eee9281a2)" d="M 278.257426 138.905522 
L 282.677228 138.905522 
L 282.677228 131.127205 
L 278.257426 131.127205 
z
" style="fill:#ff0000;stroke:#ff0000;stroke-linejoin:miter;stroke-width:0.3;"/>
   </g>
   <g id="patch_23">
    <path clip-path="url(#p4eee9281a2)" d="M 285.623762 157.167239 
L 290.043564 157.167239 
L 290.043564 130.450977 
L 285.623762 130.450977 
z
" style="fill:#ff0000;stroke:#ff0000;stroke-linejoin:miter;stroke-width:0.3;"/>
   </g>
   <g id="patch_24">
    <path clip-path="url(#p4eee9281a2)" d="M 307.722772 152.094579 
L 312.142574 152.094579 
L 312.142574 138.229125 
L 307.722772 138.229125 
z
" style="fill:#ff0000;stroke:#ff0000;stroke-linejoin:miter;stroke-width:0.3;"/>
   </g>
   <g id="patch_25">
    <path clip-path="url(#p4eee9281a2)" d="M 315.089109 141.949023 
L 319.508911 141.949023 
L 319.508911 134.509125 
L 315.089109 134.509125 
z
" style="fill:#ff0000;stroke:#ff0000;stroke-linejoin:miter;stroke-width:0.3;"/>
   </g>
   <g id="patch_26">
    <path clip-path="url(#p4eee9281a2)" d="M 322.455446 152.770977 
L 326.875248 152.770977 
L 326.875248 145.330909 
L 322.455446 145.330909 
z
" style="fill:#ff0000;stroke:#ff0000;stroke-linejoin:miter;stroke-width:0.3;"/>
   </g>
   <g id="patch_27">
    <path clip-path="url(#p4eee9281a2)" d="M 329.821782 149.389057 
L 334.241584 149.389057 
L 334.241584 134.847239 
L 329.821782 134.847239 
z
" style="fill:#ff0000;stroke:#ff0000;stroke-linejoin:miter;stroke-width:0.3;"/>
   </g>
   <g id="patch_28">
    <path clip-path="url(#p4eee9281a2)" d="M 337.188119 126.054579 
L 341.607921 126.054579 
L 341.607921 125.71633 
L 337.188119 125.71633 
z
" style="fill:#ff0000;stroke:#ff0000;stroke-linejoin:miter;stroke-width:0.3;"/>
   </g>
   <g id="patch_29">
    <path clip-path="url(#p4eee9281a2)" d="M 359.287129 109.483603 
L 363.706931 109.483603 
L 363.706931 98.661784 
L 359.287129 98.661784 
z
" style="fill:#ff0000;stroke:#ff0000;stroke-linejoin:miter;stroke-width:0.3;"/>
   </g>
   <g id="patch_30">
    <path clip-path="url(#p4eee9281a2)" d="M 366.653465 98.661784 
L 371.073267 98.661784 
L 371.073267 98.32367 
L 366.653465 98.32367 
z
" style="fill:#ff0000;stroke:#ff0000;stroke-linejoin:miter;stroke-width:0.3;"/>
   </g>
   <g id="patch_31">
    <path clip-path="url(#p4eee9281a2)" d="M 374.019802 90.207239 
L 378.439604 90.207239 
L 378.439604 85.472727 
L 374.019802 85.472727 
z
" style="fill:#ff0000;stroke:#ff0000;stroke-linejoin:miter;stroke-width:0.3;"/>
   </g>
   <g id="patch_32">
    <path clip-path="url(#p4eee9281a2)" d="M 381.386139 82.429091 
L 385.805941 82.429091 
L 385.805941 77.018182 
L 381.386139 77.018182 
z
" style="fill:#ff0000;stroke:#ff0000;stroke-linejoin:miter;stroke-width:0.3;"/>
   </g>
   <g id="patch_33">
    <path clip-path="url(#p4eee9281a2)" d="M 388.752475 72.28367 
L 393.172277 72.28367 
L 393.172277 64.167239 
L 388.752475 64.167239 
z
" style="fill:#ff0000;stroke:#ff0000;stroke-linejoin:miter;stroke-width:0.3;"/>
   </g>
   <g id="patch_34">
    <path clip-path="url(#p4eee9281a2)" d="M 410.851485 135.523636 
L 415.271287 135.523636 
L 415.271287 127.745455 
L 410.851485 127.745455 
z
" style="fill:#ff0000;stroke:#ff0000;stroke-linejoin:miter;stroke-width:0.3;"/>
   </g>
   <g id="patch_35">
    <path clip-path="url(#p4eee9281a2)" d="M 418.217822 151.418216 
L 422.637624 151.418216 
L 422.637624 134.509125 
L 418.217822 134.509125 
z
" style="fill:#ff0000;stroke:#ff0000;stroke-linejoin:miter;stroke-width:0.3;"/>
   </g>
   <g id="patch_36">
    <path clip-path="url(#p4eee9281a2)" d="M 425.584158 152.770977 
L 430.00396 152.770977 
L 430.00396 138.905522 
L 425.584158 138.905522 
z
" style="fill:#ff0000;stroke:#ff0000;stroke-linejoin:miter;stroke-width:0.3;"/>
   </g>
   <g id="patch_37">
    <path clip-path="url(#p4eee9281a2)" d="M 432.950495 143.978182 
L 437.370297 143.978182 
L 437.370297 123.010943 
L 432.950495 123.010943 
z
" style="fill:#ff0000;stroke:#ff0000;stroke-linejoin:miter;stroke-width:0.3;"/>
   </g>
   <g id="patch_38">
    <path clip-path="url(#p4eee9281a2)" d="M 440.316832 162.578148 
L 444.736634 162.578148 
L 444.736634 134.170875 
L 440.316832 134.170875 
z
" style="fill:#ff0000;stroke:#ff0000;stroke-linejoin:miter;stroke-width:0.3;"/>
   </g>
   <g id="patch_39">
    <path clip-path="url(#p4eee9281a2)" d="M 462.415842 182.869125 
L 466.835644 182.869125 
L 466.835644 157.167239 
L 462.415842 157.167239 
z
" style="fill:#ff0000;stroke:#ff0000;stroke-linejoin:miter;stroke-width:0.3;"/>
   </g>
   <g id="patch_40">
    <path clip-path="url(#p4eee9281a2)" d="M 469.782178 183.545522 
L 474.20198 183.545522 
L 474.20198 168.665421 
L 469.782178 168.665421 
z
" style="fill:#ff0000;stroke:#ff0000;stroke-linejoin:miter;stroke-width:0.3;"/>
   </g>
   <g id="patch_41">
    <path clip-path="url(#p4eee9281a2)" d="M 477.148515 192.000068 
L 481.568317 192.000068 
L 481.568317 182.530875 
L 477.148515 182.530875 
z
" style="fill:#ff0000;stroke:#ff0000;stroke-linejoin:miter;stroke-width:0.3;"/>
   </g>
   <g id="patch_42">
    <path clip-path="url(#p4eee9281a2)" d="M 484.514851 194.705455 
L 488.934653 194.705455 
L 488.934653 186.927273 
L 484.514851 186.927273 
z
" style="fill:#ff0000;stroke:#ff0000;stroke-linejoin:miter;stroke-width:0.3;"/>
   </g>
   <g id="patch_43">
    <path clip-path="url(#p4eee9281a2)" d="M 491.881188 171.709057 
L 496.30099 171.709057 
L 496.30099 166.636431 
L 491.881188 166.636431 
z
" style="fill:#ff0000;stroke:#ff0000;stroke-linejoin:miter;stroke-width:0.3;"/>
   </g>
   <g id="patch_44">
    <path clip-path="url(#p4eee9281a2)" d="M 513.980198 132.818249 
L 518.4 132.818249 
L 518.4 130.112727 
L 513.980198 130.112727 
z
" style="fill:#ff0000;stroke:#ff0000;stroke-linejoin:miter;stroke-width:0.3;"/>
   </g>
   <g id="line2d_58">
    <path clip-path="url(#p4eee9281a2)" d="M 74.209901 70.592761 
L 74.209901 76.680068 
" style="fill:none;stroke:#ff0000;stroke-linecap:round;stroke-width:0.5;"/>
   </g>
   <g id="line2d_59">
    <path clip-path="url(#p4eee9281a2)" d="M 81.576238 56.050943 
L 81.576238 64.505488 
" style="fill:none;stroke:#ff0000;stroke-linecap:round;stroke-width:0.5;"/>
   </g>
   <g id="line2d_60">
    <path clip-path="url(#p4eee9281a2)" d="M 103.675248 58.418216 
L 103.675248 63.152727 
" style="fill:none;stroke:#ff0000;stroke-linecap:round;stroke-width:0.5;"/>
   </g>
   <g id="line2d_61">
    <path clip-path="url(#p4eee9281a2)" d="M 111.041584 54.360068 
L 111.041584 77.356296 
" style="fill:none;stroke:#ff0000;stroke-linecap:round;stroke-width:0.5;"/>
   </g>
   <g id="line2d_62">
    <path clip-path="url(#p4eee9281a2)" d="M 118.407921 94.265387 
L 118.407921 159.196364 
" style="fill:none;stroke:#ff0000;stroke-linecap:round;stroke-width:0.5;"/>
   </g>
   <g id="line2d_63">
    <path clip-path="url(#p4eee9281a2)" d="M 125.774257 142.287273 
L 125.774257 164.269159 
" style="fill:none;stroke:#ff0000;stroke-linecap:round;stroke-width:0.5;"/>
   </g>
   <g id="line2d_64">
    <path clip-path="url(#p4eee9281a2)" d="M 133.140594 158.181886 
L 133.140594 169.680068 
" style="fill:none;stroke:#ff0000;stroke-linecap:round;stroke-width:0.5;"/>
   </g>
   <g id="line2d_65">
    <path clip-path="url(#p4eee9281a2)" d="M 155.239604 141.272795 
L 155.239604 146.345421 
" style="fill:none;stroke:#ff0000;stroke-linecap:round;stroke-width:0.5;"/>
   </g>
   <g id="line2d_66">
    <path clip-path="url(#p4eee9281a2)" d="M 162.605941 138.229125 
L 162.605941 148.036296 
" style="fill:none;stroke:#ff0000;stroke-linecap:round;stroke-width:0.5;"/>
   </g>
   <g id="line2d_67">
    <path clip-path="url(#p4eee9281a2)" d="M 169.972277 139.581751 
L 169.972277 155.814613 
" style="fill:none;stroke:#ff0000;stroke-linecap:round;stroke-width:0.5;"/>
   </g>
   <g id="line2d_68">
    <path clip-path="url(#p4eee9281a2)" d="M 177.338614 155.138216 
L 177.338614 168.327307 
" style="fill:none;stroke:#ff0000;stroke-linecap:round;stroke-width:0.5;"/>
   </g>
   <g id="line2d_69">
    <path clip-path="url(#p4eee9281a2)" d="M 184.70495 173.061818 
L 184.70495 181.516364 
" style="fill:none;stroke:#ff0000;stroke-linecap:round;stroke-width:0.5;"/>
   </g>
   <g id="line2d_70">
    <path clip-path="url(#p4eee9281a2)" d="M 206.80396 161.901751 
L 206.80396 165.28367 
" style="fill:none;stroke:#ff0000;stroke-linecap:round;stroke-width:0.5;"/>
   </g>
   <g id="line2d_71">
    <path clip-path="url(#p4eee9281a2)" d="M 214.170297 145.669057 
L 214.170297 165.960034 
" style="fill:none;stroke:#ff0000;stroke-linecap:round;stroke-width:0.5;"/>
   </g>
   <g id="line2d_72">
    <path clip-path="url(#p4eee9281a2)" d="M 221.536634 148.374579 
L 221.536634 149.389057 
" style="fill:none;stroke:#ff0000;stroke-linecap:round;stroke-width:0.5;"/>
   </g>
   <g id="line2d_73">
    <path clip-path="url(#p4eee9281a2)" d="M 228.90297 132.479966 
L 228.90297 137.890875 
" style="fill:none;stroke:#ff0000;stroke-linecap:round;stroke-width:0.5;"/>
   </g>
   <g id="line2d_74">
    <path clip-path="url(#p4eee9281a2)" d="M 236.269307 125.039932 
L 236.269307 127.069091 
" style="fill:none;stroke:#ff0000;stroke-linecap:round;stroke-width:0.5;"/>
   </g>
   <g id="line2d_75">
    <path clip-path="url(#p4eee9281a2)" d="M 265.734653 123.349057 
L 265.734653 123.687307 
" style="fill:none;stroke:#ff0000;stroke-linecap:round;stroke-width:0.5;"/>
   </g>
   <g id="line2d_76">
    <path clip-path="url(#p4eee9281a2)" d="M 273.10099 121.996431 
L 273.10099 135.185488 
" style="fill:none;stroke:#ff0000;stroke-linecap:round;stroke-width:0.5;"/>
   </g>
   <g id="line2d_77">
    <path clip-path="url(#p4eee9281a2)" d="M 280.467327 124.363704 
L 280.467327 131.127205 
" style="fill:none;stroke:#ff0000;stroke-linecap:round;stroke-width:0.5;"/>
   </g>
   <g id="line2d_78">
    <path clip-path="url(#p4eee9281a2)" d="M 287.833663 130.112727 
L 287.833663 139.581751 
" style="fill:none;stroke:#ff0000;stroke-linecap:round;stroke-width:0.5;"/>
   </g>
   <g id="line2d_79">
    <path clip-path="url(#p4eee9281a2)" d="M 309.932673 129.43633 
L 309.932673 132.141852 
" style="fill:none;stroke:#ff0000;stroke-linecap:round;stroke-width:0.5;"/>
   </g>
   <g id="line2d_80">
    <path clip-path="url(#p4eee9281a2)" d="M 317.29901 128.759966 
L 317.29901 139.581751 
" style="fill:none;stroke:#ff0000;stroke-linecap:round;stroke-width:0.5;"/>
   </g>
   <g id="line2d_81">
    <path clip-path="url(#p4eee9281a2)" d="M 324.665347 133.494478 
L 324.665347 136.876364 
" style="fill:none;stroke:#ff0000;stroke-linecap:round;stroke-width:0.5;"/>
   </g>
   <g id="line2d_82">
    <path clip-path="url(#p4eee9281a2)" d="M 332.031683 128.083569 
L 332.031683 129.774579 
" style="fill:none;stroke:#ff0000;stroke-linecap:round;stroke-width:0.5;"/>
   </g>
   <g id="line2d_83">
    <path clip-path="url(#p4eee9281a2)" d="M 339.39802 91.221751 
L 339.39802 96.632795 
" style="fill:none;stroke:#ff0000;stroke-linecap:round;stroke-width:0.5;"/>
   </g>
   <g id="line2d_84">
    <path clip-path="url(#p4eee9281a2)" d="M 361.49703 83.105455 
L 361.49703 92.574512 
" style="fill:none;stroke:#ff0000;stroke-linecap:round;stroke-width:0.5;"/>
   </g>
   <g id="line2d_85">
    <path clip-path="url(#p4eee9281a2)" d="M 368.863366 76.341818 
L 368.863366 83.443603 
" style="fill:none;stroke:#ff0000;stroke-linecap:round;stroke-width:0.5;"/>
   </g>
   <g id="line2d_86">
    <path clip-path="url(#p4eee9281a2)" d="M 376.229703 65.52 
L 376.229703 72.621784 
" style="fill:none;stroke:#ff0000;stroke-linecap:round;stroke-width:0.5;"/>
   </g>
   <g id="line2d_87">
    <path clip-path="url(#p4eee9281a2)" d="M 383.59604 67.210875 
L 383.59604 67.549125 
" style="fill:none;stroke:#ff0000;stroke-linecap:round;stroke-width:0.5;"/>
   </g>
   <g id="line2d_88">
    <path clip-path="url(#p4eee9281a2)" d="M 390.962376 58.079966 
L 390.962376 62.138216 
" style="fill:none;stroke:#ff0000;stroke-linecap:round;stroke-width:0.5;"/>
   </g>
   <g id="line2d_89">
    <path clip-path="url(#p4eee9281a2)" d="M 413.061386 111.174478 
L 413.061386 134.170875 
" style="fill:none;stroke:#ff0000;stroke-linecap:round;stroke-width:0.5;"/>
   </g>
   <g id="line2d_90">
    <path clip-path="url(#p4eee9281a2)" d="M 420.427723 129.774579 
L 420.427723 147.021818 
" style="fill:none;stroke:#ff0000;stroke-linecap:round;stroke-width:0.5;"/>
   </g>
   <g id="line2d_91">
    <path clip-path="url(#p4eee9281a2)" d="M 427.794059 127.40734 
L 427.794059 129.774579 
" style="fill:none;stroke:#ff0000;stroke-linecap:round;stroke-width:0.5;"/>
   </g>
   <g id="line2d_92">
    <path clip-path="url(#p4eee9281a2)" d="M 435.160396 120.981784 
L 435.160396 138.567273 
" style="fill:none;stroke:#ff0000;stroke-linecap:round;stroke-width:0.5;"/>
   </g>
   <g id="line2d_93">
    <path clip-path="url(#p4eee9281a2)" d="M 442.526733 134.170875 
L 442.526733 159.872761 
" style="fill:none;stroke:#ff0000;stroke-linecap:round;stroke-width:0.5;"/>
   </g>
   <g id="line2d_94">
    <path clip-path="url(#p4eee9281a2)" d="M 464.625743 154.123603 
L 464.625743 173.738216 
" style="fill:none;stroke:#ff0000;stroke-linecap:round;stroke-width:0.5;"/>
   </g>
   <g id="line2d_95">
    <path clip-path="url(#p4eee9281a2)" d="M 471.992079 161.901751 
L 471.992079 179.149091 
" style="fill:none;stroke:#ff0000;stroke-linecap:round;stroke-width:0.5;"/>
   </g>
   <g id="line2d_96">
    <path clip-path="url(#p4eee9281a2)" d="M 479.358416 173.399932 
L 479.358416 186.927273 
" style="fill:none;stroke:#ff0000;stroke-linecap:round;stroke-width:0.5;"/>
   </g>
   <g id="line2d_97">
    <path clip-path="url(#p4eee9281a2)" d="M 486.724752 170.018182 
L 486.724752 173.061818 
" style="fill:none;stroke:#ff0000;stroke-linecap:round;stroke-width:0.5;"/>
   </g>
   <g id="line2d_98">
    <path clip-path="url(#p4eee9281a2)" d="M 494.091089 142.96367 
L 494.091089 153.109091 
" style="fill:none;stroke:#ff0000;stroke-linecap:round;stroke-width:0.5;"/>
   </g>
   <g id="line2d_99">
    <path clip-path="url(#p4eee9281a2)" d="M 516.190099 118.952795 
L 516.190099 123.349057 
" style="fill:none;stroke:#ff0000;stroke-linecap:round;stroke-width:0.5;"/>
   </g>
   <g id="patch_45">
    <path d="M 72 43.2 
L 518.4 43.2 
" style="fill:none;"/>
   </g>
   <g id="patch_46">
    <path d="M 518.4 195.381818 
L 518.4 43.2 
" style="fill:none;"/>
   </g>
   <g id="patch_47">
    <path d="M 72 195.381818 
L 518.4 195.381818 
" style="fill:none;"/>
   </g>
   <g id="patch_48">
    <path d="M 72 195.381818 
L 72 43.2 
" style="fill:none;"/>
   </g>
   <g id="text_12">
    <!-- Yahoo Inc. -->
    <defs>
     <path d="M 9.328125 0 
L 9.328125 71.578125 
L 18.796875 71.578125 
L 18.796875 0 
z
" id="ArialMT-49"/>
     <path d="M 40.4375 19 
L 49.078125 17.875 
Q 47.65625 8.9375 41.8125 3.875 
Q 35.984375 -1.171875 27.484375 -1.171875 
Q 16.84375 -1.171875 10.375 5.78125 
Q 3.90625 12.75 3.90625 25.734375 
Q 3.90625 34.125 6.6875 40.421875 
Q 9.46875 46.734375 15.15625 49.875 
Q 20.84375 53.03125 27.546875 53.03125 
Q 35.984375 53.03125 41.359375 48.75 
Q 46.734375 44.484375 48.25 36.625 
L 39.703125 35.296875 
Q 38.484375 40.53125 35.375 43.15625 
Q 32.28125 45.796875 27.875 45.796875 
Q 21.234375 45.796875 17.078125 41.03125 
Q 12.9375 36.28125 12.9375 25.984375 
Q 12.9375 15.53125 16.9375 10.796875 
Q 20.953125 6.0625 27.390625 6.0625 
Q 32.5625 6.0625 36.03125 9.234375 
Q 39.5 12.40625 40.4375 19 
" id="ArialMT-63"/>
     <path d="M 40.4375 6.390625 
Q 35.546875 2.25 31.03125 0.53125 
Q 26.515625 -1.171875 21.34375 -1.171875 
Q 12.796875 -1.171875 8.203125 3 
Q 3.609375 7.171875 3.609375 13.671875 
Q 3.609375 17.484375 5.34375 20.625 
Q 7.078125 23.78125 9.890625 25.6875 
Q 12.703125 27.59375 16.21875 28.5625 
Q 18.796875 29.25 24.03125 29.890625 
Q 34.671875 31.15625 39.703125 32.90625 
Q 39.75 34.71875 39.75 35.203125 
Q 39.75 40.578125 37.25 42.78125 
Q 33.890625 45.75 27.25 45.75 
Q 21.046875 45.75 18.09375 43.578125 
Q 15.140625 41.40625 13.71875 35.890625 
L 5.125 37.0625 
Q 6.296875 42.578125 8.984375 45.96875 
Q 11.671875 49.359375 16.75 51.1875 
Q 21.828125 53.03125 28.515625 53.03125 
Q 35.15625 53.03125 39.296875 51.46875 
Q 43.453125 49.90625 45.40625 47.53125 
Q 47.359375 45.171875 48.140625 41.546875 
Q 48.578125 39.3125 48.578125 33.453125 
L 48.578125 21.734375 
Q 48.578125 9.46875 49.140625 6.21875 
Q 49.703125 2.984375 51.375 0 
L 42.1875 0 
Q 40.828125 2.734375 40.4375 6.390625 
M 39.703125 26.03125 
Q 34.90625 24.078125 25.34375 22.703125 
Q 19.921875 21.921875 17.671875 20.9375 
Q 15.4375 19.96875 14.203125 18.09375 
Q 12.984375 16.21875 12.984375 13.921875 
Q 12.984375 10.40625 15.640625 8.0625 
Q 18.3125 5.71875 23.4375 5.71875 
Q 28.515625 5.71875 32.46875 7.9375 
Q 36.421875 10.15625 38.28125 14.015625 
Q 39.703125 17 39.703125 22.796875 
z
" id="ArialMT-61"/>
     <path d="M 27.875 0 
L 27.875 30.328125 
L 0.296875 71.578125 
L 11.8125 71.578125 
L 25.921875 50 
Q 29.828125 43.953125 33.203125 37.890625 
Q 36.421875 43.5 41.015625 50.53125 
L 54.890625 71.578125 
L 65.921875 71.578125 
L 37.359375 30.328125 
L 37.359375 0 
z
" id="ArialMT-59"/>
     <path d="M 6.59375 0 
L 6.59375 71.578125 
L 15.375 71.578125 
L 15.375 45.90625 
Q 21.53125 53.03125 30.90625 53.03125 
Q 36.671875 53.03125 40.921875 50.75 
Q 45.171875 48.484375 47 44.484375 
Q 48.828125 40.484375 48.828125 32.859375 
L 48.828125 0 
L 40.046875 0 
L 40.046875 32.859375 
Q 40.046875 39.453125 37.1875 42.453125 
Q 34.328125 45.453125 29.109375 45.453125 
Q 25.203125 45.453125 21.75 43.421875 
Q 18.3125 41.40625 16.84375 37.9375 
Q 15.375 34.46875 15.375 28.375 
L 15.375 0 
z
" id="ArialMT-68"/>
     <path d="M 3.328125 25.921875 
Q 3.328125 40.328125 11.328125 47.265625 
Q 18.015625 53.03125 27.640625 53.03125 
Q 38.328125 53.03125 45.109375 46.015625 
Q 51.90625 39.015625 51.90625 26.65625 
Q 51.90625 16.65625 48.90625 10.90625 
Q 45.90625 5.171875 40.15625 2 
Q 34.421875 -1.171875 27.640625 -1.171875 
Q 16.75 -1.171875 10.03125 5.8125 
Q 3.328125 12.796875 3.328125 25.921875 
M 12.359375 25.921875 
Q 12.359375 15.96875 16.703125 11.015625 
Q 21.046875 6.0625 27.640625 6.0625 
Q 34.1875 6.0625 38.53125 11.03125 
Q 42.875 16.015625 42.875 26.21875 
Q 42.875 35.84375 38.5 40.796875 
Q 34.125 45.75 27.640625 45.75 
Q 21.046875 45.75 16.703125 40.8125 
Q 12.359375 35.890625 12.359375 25.921875 
" id="ArialMT-6f"/>
    </defs>
    <g style="fill:#262626;" transform="translate(266.5209375 38.2)scale(0.12 -0.12)">
     <use xlink:href="#ArialMT-59"/>
     <use x="66.58984375" xlink:href="#ArialMT-61"/>
     <use x="122.205078125" xlink:href="#ArialMT-68"/>
     <use x="177.8203125" xlink:href="#ArialMT-6f"/>
     <use x="233.435546875" xlink:href="#ArialMT-6f"/>
     <use x="289.05078125" xlink:href="#ArialMT-20"/>
     <use x="316.833984375" xlink:href="#ArialMT-49"/>
     <use x="344.6171875" xlink:href="#ArialMT-6e"/>
     <use x="400.232421875" xlink:href="#ArialMT-63"/>
     <use x="450.232421875" xlink:href="#ArialMT-2e"/>
    </g>
   </g>
  </g>
  <g id="axes_2">
   <g id="patch_49">
    <path d="M 72 378 
L 518.4 378 
L 518.4 225.818182 
L 72 225.818182 
z
" style="fill:#eaeaf2;"/>
   </g>
   <g id="matplotlib.axis_3">
    <g id="xtick_10">
     <g id="line2d_100">
      <path clip-path="url(#p4c3d4cba12)" d="M 81.576238 378 
L 81.576238 225.818182 
" style="fill:none;stroke:#ffffff;stroke-linecap:round;"/>
     </g>
     <g id="line2d_101"/>
     <g id="line2d_102"/>
     <g id="text_13">
      <!-- May 02 2014 -->
      <defs>
       <path d="M 37.25 0 
L 28.46875 0 
L 28.46875 56 
Q 25.296875 52.984375 20.140625 49.953125 
Q 14.984375 46.921875 10.890625 45.40625 
L 10.890625 53.90625 
Q 18.265625 57.375 23.78125 62.296875 
Q 29.296875 67.234375 31.59375 71.875 
L 37.25 71.875 
z
" id="ArialMT-31"/>
       <path d="M 50.34375 8.453125 
L 50.34375 0 
L 3.03125 0 
Q 2.9375 3.171875 4.046875 6.109375 
Q 5.859375 10.9375 9.828125 15.625 
Q 13.8125 20.3125 21.34375 26.46875 
Q 33.015625 36.03125 37.109375 41.625 
Q 41.21875 47.21875 41.21875 52.203125 
Q 41.21875 57.421875 37.46875 61 
Q 33.734375 64.59375 27.734375 64.59375 
Q 21.390625 64.59375 17.578125 60.78125 
Q 13.765625 56.984375 13.71875 50.25 
L 4.6875 51.171875 
Q 5.609375 61.28125 11.65625 66.578125 
Q 17.71875 71.875 27.9375 71.875 
Q 38.234375 71.875 44.234375 66.15625 
Q 50.25 60.453125 50.25 52 
Q 50.25 47.703125 48.484375 43.546875 
Q 46.734375 39.40625 42.65625 34.8125 
Q 38.578125 30.21875 29.109375 22.21875 
Q 21.1875 15.578125 18.9375 13.203125 
Q 16.703125 10.84375 15.234375 8.453125 
z
" id="ArialMT-32"/>
       <path d="M 7.421875 0 
L 7.421875 71.578125 
L 21.6875 71.578125 
L 38.625 20.90625 
Q 40.96875 13.8125 42.046875 10.296875 
Q 43.265625 14.203125 45.84375 21.78125 
L 62.984375 71.578125 
L 75.734375 71.578125 
L 75.734375 0 
L 66.609375 0 
L 66.609375 59.90625 
L 45.796875 0 
L 37.25 0 
L 16.546875 60.9375 
L 16.546875 0 
z
" id="ArialMT-4d"/>
       <path d="M 6.203125 -19.96875 
L 5.21875 -11.71875 
Q 8.109375 -12.5 10.25 -12.5 
Q 13.1875 -12.5 14.9375 -11.515625 
Q 16.703125 -10.546875 17.828125 -8.796875 
Q 18.65625 -7.46875 20.515625 -2.25 
Q 20.75 -1.515625 21.296875 -0.09375 
L 1.609375 51.859375 
L 11.078125 51.859375 
L 21.875 21.828125 
Q 23.96875 16.109375 25.640625 9.8125 
Q 27.15625 15.875 29.25 21.625 
L 40.328125 51.859375 
L 49.125 51.859375 
L 29.390625 -0.875 
Q 26.21875 -9.421875 24.46875 -12.640625 
Q 22.125 -17 19.09375 -19.015625 
Q 16.0625 -21.046875 11.859375 -21.046875 
Q 9.328125 -21.046875 6.203125 -19.96875 
" id="ArialMT-79"/>
      </defs>
      <g style="fill:#262626;" transform="translate(57.8133939214 420.13080759)rotate(-30.0)scale(0.1 -0.1)">
       <use xlink:href="#ArialMT-4d"/>
       <use x="83.30078125" xlink:href="#ArialMT-61"/>
       <use x="138.916015625" xlink:href="#ArialMT-79"/>
       <use x="188.916015625" xlink:href="#ArialMT-20"/>
       <use x="216.69921875" xlink:href="#ArialMT-30"/>
       <use x="272.314453125" xlink:href="#ArialMT-32"/>
       <use x="327.9296875" xlink:href="#ArialMT-20"/>
       <use x="355.712890625" xlink:href="#ArialMT-32"/>
       <use x="411.328125" xlink:href="#ArialMT-30"/>
       <use x="466.943359375" xlink:href="#ArialMT-31"/>
       <use x="522.55859375" xlink:href="#ArialMT-34"/>
      </g>
     </g>
    </g>
    <g id="xtick_11">
     <g id="line2d_103">
      <path clip-path="url(#p4c3d4cba12)" d="M 133.140594 378 
L 133.140594 225.818182 
" style="fill:none;stroke:#ffffff;stroke-linecap:round;"/>
     </g>
     <g id="line2d_104"/>
     <g id="line2d_105"/>
     <g id="text_14">
      <!-- May 09 2014 -->
      <defs>
       <path d="M 5.46875 16.546875 
L 13.921875 17.328125 
Q 14.984375 11.375 18.015625 8.6875 
Q 21.046875 6 25.78125 6 
Q 29.828125 6 32.875 7.859375 
Q 35.9375 9.71875 37.890625 12.8125 
Q 39.84375 15.921875 41.15625 21.1875 
Q 42.484375 26.46875 42.484375 31.9375 
Q 42.484375 32.515625 42.4375 33.6875 
Q 39.796875 29.5 35.234375 26.875 
Q 30.671875 24.265625 25.34375 24.265625 
Q 16.453125 24.265625 10.296875 30.703125 
Q 4.15625 37.15625 4.15625 47.703125 
Q 4.15625 58.59375 10.578125 65.234375 
Q 17 71.875 26.65625 71.875 
Q 33.640625 71.875 39.421875 68.109375 
Q 45.21875 64.359375 48.21875 57.390625 
Q 51.21875 50.4375 51.21875 37.25 
Q 51.21875 23.53125 48.234375 15.40625 
Q 45.265625 7.28125 39.375 3.03125 
Q 33.5 -1.21875 25.59375 -1.21875 
Q 17.1875 -1.21875 11.859375 3.4375 
Q 6.546875 8.109375 5.46875 16.546875 
M 41.453125 48.140625 
Q 41.453125 55.71875 37.421875 60.15625 
Q 33.40625 64.59375 27.734375 64.59375 
Q 21.875 64.59375 17.53125 59.8125 
Q 13.1875 55.03125 13.1875 47.40625 
Q 13.1875 40.578125 17.3125 36.296875 
Q 21.4375 32.03125 27.484375 32.03125 
Q 33.59375 32.03125 37.515625 36.296875 
Q 41.453125 40.578125 41.453125 48.140625 
" id="ArialMT-39"/>
      </defs>
      <g style="fill:#262626;" transform="translate(109.377750356 420.13080759)rotate(-30.0)scale(0.1 -0.1)">
       <use xlink:href="#ArialMT-4d"/>
       <use x="83.30078125" xlink:href="#ArialMT-61"/>
       <use x="138.916015625" xlink:href="#ArialMT-79"/>
       <use x="188.916015625" xlink:href="#ArialMT-20"/>
       <use x="216.69921875" xlink:href="#ArialMT-30"/>
       <use x="272.314453125" xlink:href="#ArialMT-39"/>
       <use x="327.9296875" xlink:href="#ArialMT-20"/>
       <use x="355.712890625" xlink:href="#ArialMT-32"/>
       <use x="411.328125" xlink:href="#ArialMT-30"/>
       <use x="466.943359375" xlink:href="#ArialMT-31"/>
       <use x="522.55859375" xlink:href="#ArialMT-34"/>
      </g>
     </g>
    </g>
    <g id="xtick_12">
     <g id="line2d_106">
      <path clip-path="url(#p4c3d4cba12)" d="M 184.70495 378 
L 184.70495 225.818182 
" style="fill:none;stroke:#ffffff;stroke-linecap:round;"/>
     </g>
     <g id="line2d_107"/>
     <g id="line2d_108"/>
     <g id="text_15">
      <!-- May 16 2014 -->
      <g style="fill:#262626;" transform="translate(160.942106792 420.13080759)rotate(-30.0)scale(0.1 -0.1)">
       <use xlink:href="#ArialMT-4d"/>
       <use x="83.30078125" xlink:href="#ArialMT-61"/>
       <use x="138.916015625" xlink:href="#ArialMT-79"/>
       <use x="188.916015625" xlink:href="#ArialMT-20"/>
       <use x="216.69921875" xlink:href="#ArialMT-31"/>
       <use x="272.314453125" xlink:href="#ArialMT-36"/>
       <use x="327.9296875" xlink:href="#ArialMT-20"/>
       <use x="355.712890625" xlink:href="#ArialMT-32"/>
       <use x="411.328125" xlink:href="#ArialMT-30"/>
       <use x="466.943359375" xlink:href="#ArialMT-31"/>
       <use x="522.55859375" xlink:href="#ArialMT-34"/>
      </g>
     </g>
    </g>
    <g id="xtick_13">
     <g id="line2d_109">
      <path clip-path="url(#p4c3d4cba12)" d="M 236.269307 378 
L 236.269307 225.818182 
" style="fill:none;stroke:#ffffff;stroke-linecap:round;"/>
     </g>
     <g id="line2d_110"/>
     <g id="line2d_111"/>
     <g id="text_16">
      <!-- May 23 2014 -->
      <g style="fill:#262626;" transform="translate(212.506463228 420.13080759)rotate(-30.0)scale(0.1 -0.1)">
       <use xlink:href="#ArialMT-4d"/>
       <use x="83.30078125" xlink:href="#ArialMT-61"/>
       <use x="138.916015625" xlink:href="#ArialMT-79"/>
       <use x="188.916015625" xlink:href="#ArialMT-20"/>
       <use x="216.69921875" xlink:href="#ArialMT-32"/>
       <use x="272.314453125" xlink:href="#ArialMT-33"/>
       <use x="327.9296875" xlink:href="#ArialMT-20"/>
       <use x="355.712890625" xlink:href="#ArialMT-32"/>
       <use x="411.328125" xlink:href="#ArialMT-30"/>
       <use x="466.943359375" xlink:href="#ArialMT-31"/>
       <use x="522.55859375" xlink:href="#ArialMT-34"/>
      </g>
     </g>
    </g>
    <g id="xtick_14">
     <g id="line2d_112">
      <path clip-path="url(#p4c3d4cba12)" d="M 287.833663 378 
L 287.833663 225.818182 
" style="fill:none;stroke:#ffffff;stroke-linecap:round;"/>
     </g>
     <g id="line2d_113"/>
     <g id="line2d_114"/>
     <g id="text_17">
      <!-- May 30 2014 -->
      <g style="fill:#262626;" transform="translate(264.070819664 420.13080759)rotate(-30.0)scale(0.1 -0.1)">
       <use xlink:href="#ArialMT-4d"/>
       <use x="83.30078125" xlink:href="#ArialMT-61"/>
       <use x="138.916015625" xlink:href="#ArialMT-79"/>
       <use x="188.916015625" xlink:href="#ArialMT-20"/>
       <use x="216.69921875" xlink:href="#ArialMT-33"/>
       <use x="272.314453125" xlink:href="#ArialMT-30"/>
       <use x="327.9296875" xlink:href="#ArialMT-20"/>
       <use x="355.712890625" xlink:href="#ArialMT-32"/>
       <use x="411.328125" xlink:href="#ArialMT-30"/>
       <use x="466.943359375" xlink:href="#ArialMT-31"/>
       <use x="522.55859375" xlink:href="#ArialMT-34"/>
      </g>
     </g>
    </g>
    <g id="xtick_15">
     <g id="line2d_115">
      <path clip-path="url(#p4c3d4cba12)" d="M 339.39802 378 
L 339.39802 225.818182 
" style="fill:none;stroke:#ffffff;stroke-linecap:round;"/>
     </g>
     <g id="line2d_116"/>
     <g id="line2d_117"/>
     <g id="text_18">
      <!-- Jun 06 2014 -->
      <defs>
       <path d="M 2.875 20.3125 
L 11.421875 21.484375 
Q 11.765625 13.28125 14.5 10.25 
Q 17.234375 7.234375 22.078125 7.234375 
Q 25.640625 7.234375 28.21875 8.859375 
Q 30.8125 10.5 31.78125 13.296875 
Q 32.765625 16.109375 32.765625 22.265625 
L 32.765625 71.578125 
L 42.234375 71.578125 
L 42.234375 22.796875 
Q 42.234375 13.8125 40.0625 8.875 
Q 37.890625 3.953125 33.171875 1.359375 
Q 28.46875 -1.21875 22.125 -1.21875 
Q 12.703125 -1.21875 7.6875 4.203125 
Q 2.6875 9.625 2.875 20.3125 
" id="ArialMT-4a"/>
       <path d="M 40.578125 0 
L 40.578125 7.625 
Q 34.515625 -1.171875 24.125 -1.171875 
Q 19.53125 -1.171875 15.546875 0.578125 
Q 11.578125 2.34375 9.640625 5 
Q 7.71875 7.671875 6.9375 11.53125 
Q 6.390625 14.109375 6.390625 19.734375 
L 6.390625 51.859375 
L 15.1875 51.859375 
L 15.1875 23.09375 
Q 15.1875 16.21875 15.71875 13.8125 
Q 16.546875 10.359375 19.234375 8.375 
Q 21.921875 6.390625 25.875 6.390625 
Q 29.828125 6.390625 33.296875 8.421875 
Q 36.765625 10.453125 38.203125 13.9375 
Q 39.65625 17.4375 39.65625 24.078125 
L 39.65625 51.859375 
L 48.4375 51.859375 
L 48.4375 0 
z
" id="ArialMT-75"/>
      </defs>
      <g style="fill:#262626;" transform="translate(316.855955018 418.720722461)rotate(-30.0)scale(0.1 -0.1)">
       <use xlink:href="#ArialMT-4a"/>
       <use x="50.0" xlink:href="#ArialMT-75"/>
       <use x="105.615234375" xlink:href="#ArialMT-6e"/>
       <use x="161.23046875" xlink:href="#ArialMT-20"/>
       <use x="189.013671875" xlink:href="#ArialMT-30"/>
       <use x="244.62890625" xlink:href="#ArialMT-36"/>
       <use x="300.244140625" xlink:href="#ArialMT-20"/>
       <use x="328.02734375" xlink:href="#ArialMT-32"/>
       <use x="383.642578125" xlink:href="#ArialMT-30"/>
       <use x="439.2578125" xlink:href="#ArialMT-31"/>
       <use x="494.873046875" xlink:href="#ArialMT-34"/>
      </g>
     </g>
    </g>
    <g id="xtick_16">
     <g id="line2d_118">
      <path clip-path="url(#p4c3d4cba12)" d="M 390.962376 378 
L 390.962376 225.818182 
" style="fill:none;stroke:#ffffff;stroke-linecap:round;"/>
     </g>
     <g id="line2d_119"/>
     <g id="line2d_120"/>
     <g id="text_19">
      <!-- Jun 13 2014 -->
      <g style="fill:#262626;" transform="translate(368.420311453 418.720722461)rotate(-30.0)scale(0.1 -0.1)">
       <use xlink:href="#ArialMT-4a"/>
       <use x="50.0" xlink:href="#ArialMT-75"/>
       <use x="105.615234375" xlink:href="#ArialMT-6e"/>
       <use x="161.23046875" xlink:href="#ArialMT-20"/>
       <use x="189.013671875" xlink:href="#ArialMT-31"/>
       <use x="244.62890625" xlink:href="#ArialMT-33"/>
       <use x="300.244140625" xlink:href="#ArialMT-20"/>
       <use x="328.02734375" xlink:href="#ArialMT-32"/>
       <use x="383.642578125" xlink:href="#ArialMT-30"/>
       <use x="439.2578125" xlink:href="#ArialMT-31"/>
       <use x="494.873046875" xlink:href="#ArialMT-34"/>
      </g>
     </g>
    </g>
    <g id="xtick_17">
     <g id="line2d_121">
      <path clip-path="url(#p4c3d4cba12)" d="M 442.526733 378 
L 442.526733 225.818182 
" style="fill:none;stroke:#ffffff;stroke-linecap:round;"/>
     </g>
     <g id="line2d_122"/>
     <g id="line2d_123"/>
     <g id="text_20">
      <!-- Jun 20 2014 -->
      <g style="fill:#262626;" transform="translate(419.984667889 418.720722461)rotate(-30.0)scale(0.1 -0.1)">
       <use xlink:href="#ArialMT-4a"/>
       <use x="50.0" xlink:href="#ArialMT-75"/>
       <use x="105.615234375" xlink:href="#ArialMT-6e"/>
       <use x="161.23046875" xlink:href="#ArialMT-20"/>
       <use x="189.013671875" xlink:href="#ArialMT-32"/>
       <use x="244.62890625" xlink:href="#ArialMT-30"/>
       <use x="300.244140625" xlink:href="#ArialMT-20"/>
       <use x="328.02734375" xlink:href="#ArialMT-32"/>
       <use x="383.642578125" xlink:href="#ArialMT-30"/>
       <use x="439.2578125" xlink:href="#ArialMT-31"/>
       <use x="494.873046875" xlink:href="#ArialMT-34"/>
      </g>
     </g>
    </g>
    <g id="xtick_18">
     <g id="line2d_124">
      <path clip-path="url(#p4c3d4cba12)" d="M 494.091089 378 
L 494.091089 225.818182 
" style="fill:none;stroke:#ffffff;stroke-linecap:round;"/>
     </g>
     <g id="line2d_125"/>
     <g id="line2d_126"/>
     <g id="text_21">
      <!-- Jun 27 2014 -->
      <g style="fill:#262626;" transform="translate(471.549024325 418.720722461)rotate(-30.0)scale(0.1 -0.1)">
       <use xlink:href="#ArialMT-4a"/>
       <use x="50.0" xlink:href="#ArialMT-75"/>
       <use x="105.615234375" xlink:href="#ArialMT-6e"/>
       <use x="161.23046875" xlink:href="#ArialMT-20"/>
       <use x="189.013671875" xlink:href="#ArialMT-32"/>
       <use x="244.62890625" xlink:href="#ArialMT-37"/>
       <use x="300.244140625" xlink:href="#ArialMT-20"/>
       <use x="328.02734375" xlink:href="#ArialMT-32"/>
       <use x="383.642578125" xlink:href="#ArialMT-30"/>
       <use x="439.2578125" xlink:href="#ArialMT-31"/>
       <use x="494.873046875" xlink:href="#ArialMT-34"/>
      </g>
     </g>
    </g>
   </g>
   <g id="matplotlib.axis_4">
    <g id="ytick_11">
     <g id="line2d_127">
      <path clip-path="url(#p4c3d4cba12)" d="M 72 378 
L 518.4 378 
" style="fill:none;stroke:#ffffff;stroke-linecap:round;"/>
     </g>
     <g id="line2d_128"/>
     <g id="line2d_129"/>
     <g id="text_22">
      <!-- 0 -->
      <g style="fill:#262626;" transform="translate(59.4390625 380.58515625)scale(0.1 -0.1)">
       <use xlink:href="#ArialMT-30"/>
      </g>
     </g>
    </g>
    <g id="ytick_12">
     <g id="line2d_130">
      <path clip-path="url(#p4c3d4cba12)" d="M 72 356.25974 
L 518.4 356.25974 
" style="fill:none;stroke:#ffffff;stroke-linecap:round;"/>
     </g>
     <g id="line2d_131"/>
     <g id="line2d_132"/>
     <g id="text_23">
      <!-- 1 -->
      <g style="fill:#262626;" transform="translate(59.4390625 358.84489651)scale(0.1 -0.1)">
       <use xlink:href="#ArialMT-31"/>
      </g>
     </g>
    </g>
    <g id="ytick_13">
     <g id="line2d_133">
      <path clip-path="url(#p4c3d4cba12)" d="M 72 334.519481 
L 518.4 334.519481 
" style="fill:none;stroke:#ffffff;stroke-linecap:round;"/>
     </g>
     <g id="line2d_134"/>
     <g id="line2d_135"/>
     <g id="text_24">
      <!-- 2 -->
      <g style="fill:#262626;" transform="translate(59.4390625 337.104636769)scale(0.1 -0.1)">
       <use xlink:href="#ArialMT-32"/>
      </g>
     </g>
    </g>
    <g id="ytick_14">
     <g id="line2d_136">
      <path clip-path="url(#p4c3d4cba12)" d="M 72 312.779221 
L 518.4 312.779221 
" style="fill:none;stroke:#ffffff;stroke-linecap:round;"/>
     </g>
     <g id="line2d_137"/>
     <g id="line2d_138"/>
     <g id="text_25">
      <!-- 3 -->
      <g style="fill:#262626;" transform="translate(59.4390625 315.364377029)scale(0.1 -0.1)">
       <use xlink:href="#ArialMT-33"/>
      </g>
     </g>
    </g>
    <g id="ytick_15">
     <g id="line2d_139">
      <path clip-path="url(#p4c3d4cba12)" d="M 72 291.038961 
L 518.4 291.038961 
" style="fill:none;stroke:#ffffff;stroke-linecap:round;"/>
     </g>
     <g id="line2d_140"/>
     <g id="line2d_141"/>
     <g id="text_26">
      <!-- 4 -->
      <g style="fill:#262626;" transform="translate(59.4390625 293.624117289)scale(0.1 -0.1)">
       <use xlink:href="#ArialMT-34"/>
      </g>
     </g>
    </g>
    <g id="ytick_16">
     <g id="line2d_142">
      <path clip-path="url(#p4c3d4cba12)" d="M 72 269.298701 
L 518.4 269.298701 
" style="fill:none;stroke:#ffffff;stroke-linecap:round;"/>
     </g>
     <g id="line2d_143"/>
     <g id="line2d_144"/>
     <g id="text_27">
      <!-- 5 -->
      <g style="fill:#262626;" transform="translate(59.4390625 271.883857549)scale(0.1 -0.1)">
       <use xlink:href="#ArialMT-35"/>
      </g>
     </g>
    </g>
    <g id="ytick_17">
     <g id="line2d_145">
      <path clip-path="url(#p4c3d4cba12)" d="M 72 247.558442 
L 518.4 247.558442 
" style="fill:none;stroke:#ffffff;stroke-linecap:round;"/>
     </g>
     <g id="line2d_146"/>
     <g id="line2d_147"/>
     <g id="text_28">
      <!-- 6 -->
      <g style="fill:#262626;" transform="translate(59.4390625 250.143597808)scale(0.1 -0.1)">
       <use xlink:href="#ArialMT-36"/>
      </g>
     </g>
    </g>
    <g id="ytick_18">
     <g id="line2d_148">
      <path clip-path="url(#p4c3d4cba12)" d="M 72 225.818182 
L 518.4 225.818182 
" style="fill:none;stroke:#ffffff;stroke-linecap:round;"/>
     </g>
     <g id="line2d_149"/>
     <g id="line2d_150"/>
     <g id="text_29">
      <!-- 7 -->
      <g style="fill:#262626;" transform="translate(59.4390625 228.403338068)scale(0.1 -0.1)">
       <use xlink:href="#ArialMT-37"/>
      </g>
     </g>
    </g>
    <g id="text_30">
     <!-- volume -->
     <defs>
      <path d="M 6.59375 0 
L 6.59375 51.859375 
L 14.453125 51.859375 
L 14.453125 44.578125 
Q 16.890625 48.390625 20.9375 50.703125 
Q 25 53.03125 30.171875 53.03125 
Q 35.9375 53.03125 39.625 50.640625 
Q 43.3125 48.25 44.828125 43.953125 
Q 50.984375 53.03125 60.84375 53.03125 
Q 68.5625 53.03125 72.703125 48.75 
Q 76.859375 44.484375 76.859375 35.59375 
L 76.859375 0 
L 68.109375 0 
L 68.109375 32.671875 
Q 68.109375 37.9375 67.25 40.25 
Q 66.40625 42.578125 64.15625 43.984375 
Q 61.921875 45.40625 58.890625 45.40625 
Q 53.421875 45.40625 49.796875 41.765625 
Q 46.1875 38.140625 46.1875 30.125 
L 46.1875 0 
L 37.40625 0 
L 37.40625 33.6875 
Q 37.40625 39.546875 35.25 42.46875 
Q 33.109375 45.40625 28.21875 45.40625 
Q 24.515625 45.40625 21.359375 43.453125 
Q 18.21875 41.5 16.796875 37.734375 
Q 15.375 33.984375 15.375 26.90625 
L 15.375 0 
z
" id="ArialMT-6d"/>
     </defs>
     <g style="fill:#262626;" transform="translate(52.2528125 319.637997159)rotate(-90.0)scale(0.11 -0.11)">
      <use xlink:href="#ArialMT-76"/>
      <use x="50.0" xlink:href="#ArialMT-6f"/>
      <use x="105.615234375" xlink:href="#ArialMT-6c"/>
      <use x="127.83203125" xlink:href="#ArialMT-75"/>
      <use x="183.447265625" xlink:href="#ArialMT-6d"/>
      <use x="266.748046875" xlink:href="#ArialMT-65"/>
     </g>
    </g>
    <g id="text_31">
     <!-- 1e7 -->
     <g style="fill:#262626;" transform="translate(72.0 222.818181818)scale(0.1 -0.1)">
      <use xlink:href="#ArialMT-31"/>
      <use x="55.615234375" xlink:href="#ArialMT-65"/>
      <use x="111.23046875" xlink:href="#ArialMT-37"/>
     </g>
    </g>
   </g>
   <g id="patch_50">
    <path clip-path="url(#p4c3d4cba12)" d="M 72.368317 378 
L 76.051485 378 
L 76.051485 335.661496 
L 72.368317 335.661496 
z
" style="fill:#4c72b0;stroke:#000000;stroke-linejoin:miter;stroke-width:0.3;"/>
   </g>
   <g id="patch_51">
    <path clip-path="url(#p4c3d4cba12)" d="M 79.734653 378 
L 83.417822 378 
L 83.417822 329.184203 
L 79.734653 329.184203 
z
" style="fill:#4c72b0;stroke:#000000;stroke-linejoin:miter;stroke-width:0.3;"/>
   </g>
   <g id="patch_52">
    <path clip-path="url(#p4c3d4cba12)" d="M 101.833663 378 
L 105.516832 378 
L 105.516832 349.456996 
L 101.833663 349.456996 
z
" style="fill:#4c72b0;stroke:#000000;stroke-linejoin:miter;stroke-width:0.3;"/>
   </g>
   <g id="patch_53">
    <path clip-path="url(#p4c3d4cba12)" d="M 109.2 378 
L 112.883168 378 
L 112.883168 336.354358 
L 109.2 336.354358 
z
" style="fill:#4c72b0;stroke:#000000;stroke-linejoin:miter;stroke-width:0.3;"/>
   </g>
   <g id="patch_54">
    <path clip-path="url(#p4c3d4cba12)" d="M 116.566337 378 
L 120.249505 378 
L 120.249505 234.377974 
L 116.566337 234.377974 
z
" style="fill:#4c72b0;stroke:#000000;stroke-linejoin:miter;stroke-width:0.3;"/>
   </g>
   <g id="patch_55">
    <path clip-path="url(#p4c3d4cba12)" d="M 123.932673 378 
L 127.615842 378 
L 127.615842 311.89287 
L 123.932673 311.89287 
z
" style="fill:#4c72b0;stroke:#000000;stroke-linejoin:miter;stroke-width:0.3;"/>
   </g>
   <g id="patch_56">
    <path clip-path="url(#p4c3d4cba12)" d="M 131.29901 378 
L 134.982178 378 
L 134.982178 333.859881 
L 131.29901 333.859881 
z
" style="fill:#4c72b0;stroke:#000000;stroke-linejoin:miter;stroke-width:0.3;"/>
   </g>
   <g id="patch_57">
    <path clip-path="url(#p4c3d4cba12)" d="M 153.39802 378 
L 157.081188 378 
L 157.081188 329.039631 
L 153.39802 329.039631 
z
" style="fill:#4c72b0;stroke:#000000;stroke-linejoin:miter;stroke-width:0.3;"/>
   </g>
   <g id="patch_58">
    <path clip-path="url(#p4c3d4cba12)" d="M 160.764356 378 
L 164.447525 378 
L 164.447525 350.874461 
L 160.764356 350.874461 
z
" style="fill:#4c72b0;stroke:#000000;stroke-linejoin:miter;stroke-width:0.3;"/>
   </g>
   <g id="patch_59">
    <path clip-path="url(#p4c3d4cba12)" d="M 168.130693 378 
L 171.813861 378 
L 171.813861 340.956771 
L 168.130693 340.956771 
z
" style="fill:#4c72b0;stroke:#000000;stroke-linejoin:miter;stroke-width:0.3;"/>
   </g>
   <g id="patch_60">
    <path clip-path="url(#p4c3d4cba12)" d="M 175.49703 378 
L 179.180198 378 
L 179.180198 336.954824 
L 175.49703 336.954824 
z
" style="fill:#4c72b0;stroke:#000000;stroke-linejoin:miter;stroke-width:0.3;"/>
   </g>
   <g id="patch_61">
    <path clip-path="url(#p4c3d4cba12)" d="M 182.863366 378 
L 186.546535 378 
L 186.546535 337.025915 
L 182.863366 337.025915 
z
" style="fill:#4c72b0;stroke:#000000;stroke-linejoin:miter;stroke-width:0.3;"/>
   </g>
   <g id="patch_62">
    <path clip-path="url(#p4c3d4cba12)" d="M 204.962376 378 
L 208.645545 378 
L 208.645545 345.725063 
L 204.962376 345.725063 
z
" style="fill:#4c72b0;stroke:#000000;stroke-linejoin:miter;stroke-width:0.3;"/>
   </g>
   <g id="patch_63">
    <path clip-path="url(#p4c3d4cba12)" d="M 212.328713 378 
L 216.011881 378 
L 216.011881 337.570291 
L 212.328713 337.570291 
z
" style="fill:#4c72b0;stroke:#000000;stroke-linejoin:miter;stroke-width:0.3;"/>
   </g>
   <g id="patch_64">
    <path clip-path="url(#p4c3d4cba12)" d="M 219.69505 378 
L 223.378218 378 
L 223.378218 347.988658 
L 219.69505 347.988658 
z
" style="fill:#4c72b0;stroke:#000000;stroke-linejoin:miter;stroke-width:0.3;"/>
   </g>
   <g id="patch_65">
    <path clip-path="url(#p4c3d4cba12)" d="M 227.061386 378 
L 230.744554 378 
L 230.744554 339.904978 
L 227.061386 339.904978 
z
" style="fill:#4c72b0;stroke:#000000;stroke-linejoin:miter;stroke-width:0.3;"/>
   </g>
   <g id="patch_66">
    <path clip-path="url(#p4c3d4cba12)" d="M 234.427723 378 
L 238.110891 378 
L 238.110891 342.575551 
L 234.427723 342.575551 
z
" style="fill:#4c72b0;stroke:#000000;stroke-linejoin:miter;stroke-width:0.3;"/>
   </g>
   <g id="patch_67">
    <path clip-path="url(#p4c3d4cba12)" d="M 263.893069 378 
L 267.576238 378 
L 267.576238 349.613743 
L 263.893069 349.613743 
z
" style="fill:#4c72b0;stroke:#000000;stroke-linejoin:miter;stroke-width:0.3;"/>
   </g>
   <g id="patch_68">
    <path clip-path="url(#p4c3d4cba12)" d="M 271.259406 378 
L 274.942574 378 
L 274.942574 341.127432 
L 271.259406 341.127432 
z
" style="fill:#4c72b0;stroke:#000000;stroke-linejoin:miter;stroke-width:0.3;"/>
   </g>
   <g id="patch_69">
    <path clip-path="url(#p4c3d4cba12)" d="M 278.625743 378 
L 282.308911 378 
L 282.308911 356.736287 
L 278.625743 356.736287 
z
" style="fill:#4c72b0;stroke:#000000;stroke-linejoin:miter;stroke-width:0.3;"/>
   </g>
   <g id="patch_70">
    <path clip-path="url(#p4c3d4cba12)" d="M 285.992079 378 
L 289.675248 378 
L 289.675248 349.405036 
L 285.992079 349.405036 
z
" style="fill:#4c72b0;stroke:#000000;stroke-linejoin:miter;stroke-width:0.3;"/>
   </g>
   <g id="patch_71">
    <path clip-path="url(#p4c3d4cba12)" d="M 308.091089 378 
L 311.774257 378 
L 311.774257 358.044833 
L 308.091089 358.044833 
z
" style="fill:#4c72b0;stroke:#000000;stroke-linejoin:miter;stroke-width:0.3;"/>
   </g>
   <g id="patch_72">
    <path clip-path="url(#p4c3d4cba12)" d="M 315.457426 378 
L 319.140594 378 
L 319.140594 363.743825 
L 315.457426 363.743825 
z
" style="fill:#4c72b0;stroke:#000000;stroke-linejoin:miter;stroke-width:0.3;"/>
   </g>
   <g id="patch_73">
    <path clip-path="url(#p4c3d4cba12)" d="M 322.823762 378 
L 326.506931 378 
L 326.506931 357.490022 
L 322.823762 357.490022 
z
" style="fill:#4c72b0;stroke:#000000;stroke-linejoin:miter;stroke-width:0.3;"/>
   </g>
   <g id="patch_74">
    <path clip-path="url(#p4c3d4cba12)" d="M 330.190099 378 
L 333.873267 378 
L 333.873267 353.666562 
L 330.190099 353.666562 
z
" style="fill:#4c72b0;stroke:#000000;stroke-linejoin:miter;stroke-width:0.3;"/>
   </g>
   <g id="patch_75">
    <path clip-path="url(#p4c3d4cba12)" d="M 337.556436 378 
L 341.239604 378 
L 341.239604 337.330061 
L 337.556436 337.330061 
z
" style="fill:#4c72b0;stroke:#000000;stroke-linejoin:miter;stroke-width:0.3;"/>
   </g>
   <g id="patch_76">
    <path clip-path="url(#p4c3d4cba12)" d="M 359.655446 378 
L 363.338614 378 
L 363.338614 346.715766 
L 359.655446 346.715766 
z
" style="fill:#4c72b0;stroke:#000000;stroke-linejoin:miter;stroke-width:0.3;"/>
   </g>
   <g id="patch_77">
    <path clip-path="url(#p4c3d4cba12)" d="M 367.021782 378 
L 370.70495 378 
L 370.70495 358.043963 
L 367.021782 358.043963 
z
" style="fill:#4c72b0;stroke:#000000;stroke-linejoin:miter;stroke-width:0.3;"/>
   </g>
   <g id="patch_78">
    <path clip-path="url(#p4c3d4cba12)" d="M 374.388119 378 
L 378.071287 378 
L 378.071287 349.038713 
L 374.388119 349.038713 
z
" style="fill:#4c72b0;stroke:#000000;stroke-linejoin:miter;stroke-width:0.3;"/>
   </g>
   <g id="patch_79">
    <path clip-path="url(#p4c3d4cba12)" d="M 381.754455 378 
L 385.437624 378 
L 385.437624 350.898375 
L 381.754455 350.898375 
z
" style="fill:#4c72b0;stroke:#000000;stroke-linejoin:miter;stroke-width:0.3;"/>
   </g>
   <g id="patch_80">
    <path clip-path="url(#p4c3d4cba12)" d="M 389.120792 378 
L 392.80396 378 
L 392.80396 349.897888 
L 389.120792 349.897888 
z
" style="fill:#4c72b0;stroke:#000000;stroke-linejoin:miter;stroke-width:0.3;"/>
   </g>
   <g id="patch_81">
    <path clip-path="url(#p4c3d4cba12)" d="M 411.219802 378 
L 414.90297 378 
L 414.90297 307.491337 
L 411.219802 307.491337 
z
" style="fill:#4c72b0;stroke:#000000;stroke-linejoin:miter;stroke-width:0.3;"/>
   </g>
   <g id="patch_82">
    <path clip-path="url(#p4c3d4cba12)" d="M 418.586139 378 
L 422.269307 378 
L 422.269307 324.947462 
L 418.586139 324.947462 
z
" style="fill:#4c72b0;stroke:#000000;stroke-linejoin:miter;stroke-width:0.3;"/>
   </g>
   <g id="patch_83">
    <path clip-path="url(#p4c3d4cba12)" d="M 425.952475 378 
L 429.635644 378 
L 429.635644 339.224073 
L 425.952475 339.224073 
z
" style="fill:#4c72b0;stroke:#000000;stroke-linejoin:miter;stroke-width:0.3;"/>
   </g>
   <g id="patch_84">
    <path clip-path="url(#p4c3d4cba12)" d="M 433.318812 378 
L 437.00198 378 
L 437.00198 342.780779 
L 433.318812 342.780779 
z
" style="fill:#4c72b0;stroke:#000000;stroke-linejoin:miter;stroke-width:0.3;"/>
   </g>
   <g id="patch_85">
    <path clip-path="url(#p4c3d4cba12)" d="M 440.685149 378 
L 444.368317 378 
L 444.368317 331.02843 
L 440.685149 331.02843 
z
" style="fill:#4c72b0;stroke:#000000;stroke-linejoin:miter;stroke-width:0.3;"/>
   </g>
   <g id="patch_86">
    <path clip-path="url(#p4c3d4cba12)" d="M 462.784158 378 
L 466.467327 378 
L 466.467327 321.026606 
L 462.784158 321.026606 
z
" style="fill:#4c72b0;stroke:#000000;stroke-linejoin:miter;stroke-width:0.3;"/>
   </g>
   <g id="patch_87">
    <path clip-path="url(#p4c3d4cba12)" d="M 470.150495 378 
L 473.833663 378 
L 473.833663 346.281396 
L 470.150495 346.281396 
z
" style="fill:#4c72b0;stroke:#000000;stroke-linejoin:miter;stroke-width:0.3;"/>
   </g>
   <g id="patch_88">
    <path clip-path="url(#p4c3d4cba12)" d="M 477.516832 378 
L 481.2 378 
L 481.2 338.705785 
L 477.516832 338.705785 
z
" style="fill:#4c72b0;stroke:#000000;stroke-linejoin:miter;stroke-width:0.3;"/>
   </g>
   <g id="patch_89">
    <path clip-path="url(#p4c3d4cba12)" d="M 484.883168 378 
L 488.566337 378 
L 488.566337 343.193844 
L 484.883168 343.193844 
z
" style="fill:#4c72b0;stroke:#000000;stroke-linejoin:miter;stroke-width:0.3;"/>
   </g>
   <g id="patch_90">
    <path clip-path="url(#p4c3d4cba12)" d="M 492.249505 378 
L 495.932673 378 
L 495.932673 322.561033 
L 492.249505 322.561033 
z
" style="fill:#4c72b0;stroke:#000000;stroke-linejoin:miter;stroke-width:0.3;"/>
   </g>
   <g id="patch_91">
    <path clip-path="url(#p4c3d4cba12)" d="M 514.348515 378 
L 518.031683 378 
L 518.031683 333.540951 
L 514.348515 333.540951 
z
" style="fill:#4c72b0;stroke:#000000;stroke-linejoin:miter;stroke-width:0.3;"/>
   </g>
   <g id="patch_92">
    <path d="M 72 225.818182 
L 518.4 225.818182 
" style="fill:none;"/>
   </g>
   <g id="patch_93">
    <path d="M 518.4 378 
L 518.4 225.818182 
" style="fill:none;"/>
   </g>
   <g id="patch_94">
    <path d="M 72 378 
L 518.4 378 
" style="fill:none;"/>
   </g>
   <g id="patch_95">
    <path d="M 72 378 
L 72 225.818182 
" style="fill:none;"/>
   </g>
  </g>
 </g>
 <defs>
  <clipPath id="p4eee9281a2">
   <rect height="152.181818182" width="446.4" x="72.0" y="43.2"/>
  </clipPath>
  <clipPath id="p4c3d4cba12">
   <rect height="152.181818182" width="446.4" x="72.0" y="225.818181818"/>
  </clipPath>
 </defs>
</svg>
